# xmcd CD database file
#
# Track frame offsets:
#	150
#	11540
#	24867
#	37801
#	52742
#	67595
#	77913
#	101040
#	113632
#	127453
#	138300
#	156183
#	170331
#	182920
#
# Disc length: 2558 seconds
#
# Revision: 0
# Processed by: cddbd v1.5.1PL0 Copyright (c) Steve Scherf et al.
# Submitted via: CDex 1.51
#
DISCID=a909fc0e
DTITLE=Chicago Al and The Backburners - Late Again
DYEAR=1900
DGENRE=Blues
TTITLE0=Hey Girl
TTITLE1=Late Again
TTITLE2=Do It
TTITLE3=Up To Chicago
TTITLE4=Closing Time
TTITLE5=Watch Dog
TTITLE6=Midnight Hour (Lonley Time)
TTITLE7=She's Fine
TTITLE8=This Guitar
TTITLE9=Think About Me
TTITLE10=Backburn
TTITLE11=I Hear You Knocking
TTITLE12=Tore Up
TTITLE13=Stoop Down
EXTD=
EXTT0=
EXTT1=
EXTT2=
EXTT3=
EXTT4=
EXTT5=
EXTT6=
EXTT7=
EXTT8=
EXTT9=
EXTT10=
EXTT11=
EXTT12=
EXTT13=
PLAYORDER=
